<?xml version="1.0" encoding="iso-8859-1"?>
<!-- Generator: Adobe Illustrator 19.0.0, SVG Export Plug-In . SVG Version: 6.00 Build 0)  -->
<svg version="1.1" id="Layer_1" xmlns="http://www.w3.org/2000/svg" xmlns:xlink="http://www.w3.org/1999/xlink" x="0px" y="0px"
	 viewBox="0 0 512 512" style="enable-background:new 0 0 512 512;" xml:space="preserve">
<path style="fill:#2D527C;" d="M417.367,404.452H345.05c-7.528,0-13.63-6.102-13.63-13.63s6.102-13.63,13.63-13.63h72.317
	c37.149,0,67.374-30.223,67.374-67.374c0-32.344-23.107-60.182-54.94-66.192c-3.707-0.701-6.958-2.906-8.981-6.091
	c-2.021-3.185-2.632-7.067-1.686-10.72c2.415-9.331,3.641-18.997,3.641-28.728c0-62.993-51.248-114.24-114.24-114.24
	c-39.315,0-75.392,19.845-96.507,53.085c-3.641,5.731-10.946,7.907-17.13,5.107c-9.741-4.413-20.116-6.651-30.835-6.651
	c-41.266,0-74.839,33.573-74.839,74.84c0,5.745,0.677,11.535,2.013,17.209c0.84,3.572,0.204,7.33-1.761,10.428
	s-5.099,5.271-8.689,6.03c-31.015,6.552-53.527,34.276-53.527,65.923c0,37.149,30.224,67.374,67.374,67.374h72.771
	c7.528,0,13.63,6.102,13.63,13.63c0,7.528-6.102,13.63-13.63,13.63H94.633C42.451,404.452,0,362.001,0,309.82
	c0-40.028,25.628-75.587,62.524-88.986c-0.371-3.53-0.557-7.071-0.557-10.603c0-56.298,45.802-102.1,102.098-102.1
	c10.757,0,21.261,1.653,31.357,4.924c26.687-35.555,68.19-56.466,113.114-56.466c78.024,0,141.499,63.477,141.499,141.499
	c0,7.492-0.589,14.959-1.756,22.316C485.904,233.417,512,269.073,512,309.82C512,362.001,469.549,404.452,417.367,404.452z"/>
<path style="fill:#CEE8FA;" d="M313.298,336.968l-49.068-67.037c-4.074-5.566-12.384-5.566-16.459,0l-49.067,67.037
	c-4.931,6.737-0.12,16.222,8.23,16.222H220.3v65.29c0,12.869,10.432,23.303,23.303,23.303h24.798
	c12.869,0,23.303-10.432,23.303-23.303v-65.29h13.367C313.418,353.19,318.229,343.705,313.298,336.968z"/>
<path style="fill:#2D527C;" d="M268.4,455.411h-24.798c-20.364,0-36.931-16.567-36.931-36.931v-51.661
	c-8.919-0.095-16.945-5.077-20.987-13.046c-4.083-8.048-3.308-17.572,2.023-24.854l49.067-67.037
	c4.472-6.108,11.659-9.755,19.228-9.755s14.757,3.646,19.228,9.753l49.067,67.04c5.331,7.282,6.105,16.806,2.023,24.854
	c-4.043,7.971-12.068,12.951-20.987,13.046v51.661C305.331,438.844,288.764,455.411,268.4,455.411z M213.696,339.561h6.602
	c7.528,0,13.63,6.102,13.63,13.63v65.29c0,5.333,4.338,9.672,9.672,9.672h24.798c5.333,0,9.672-4.338,9.672-9.672v-65.29
	c0-7.528,6.102-13.63,13.63-13.63h6.602l-42.304-57.797L213.696,339.561z"/>
<g>
</g>
<g>
</g>
<g>
</g>
<g>
</g>
<g>
</g>
<g>
</g>
<g>
</g>
<g>
</g>
<g>
</g>
<g>
</g>
<g>
</g>
<g>
</g>
<g>
</g>
<g>
</g>
<g>
</g>
</svg>
